<svg width="800" height="800" viewBox="0 0 800 800" fill="none" xmlns="http://www.w3.org/2000/svg">
<g clip-path="url(#clip0_225_3994)">
<path d="M758.611 57.9167C750.834 40.5556 728.611 39.8611 719.306 56.25C676.25 131.111 599.167 177.778 511.111 177.778H400C252.778 177.778 133.334 297.222 133.334 444.444C133.334 454.167 134.445 463.472 135.417 472.917C224.028 409.444 351.945 355.556 533.333 355.556C545.556 355.556 555.556 365.556 555.556 377.778C555.556 390 545.556 400 533.333 400C184.167 400 36.1113 614.028 3.33351 694.444C-5.83315 717.083 5.00018 742.917 27.6391 752.222C50.4168 761.667 76.2502 750.694 85.6946 728.194C87.778 723.194 114.722 661.667 185.556 602.361C230.556 663.333 316.111 721.528 428.472 709.583C646.528 693.75 800 498.194 800 258.75C800 189.028 785 116.806 758.611 57.9167Z" fill="#00FF00"/>
</g>
<defs>
<clipPath id="clip0_225_3994">
<rect width="800" height="800" fill="white"/>
</clipPath>
</defs>
</svg>