<svg width="411" height="91" viewBox="0 0 411 91" fill="none" xmlns="http://www.w3.org/2000/svg">
<path d="M126.114 28.5454C126.114 32.3522 125.392 35.5908 123.949 38.2613C122.517 40.9317 120.563 42.9715 118.085 44.3806C115.619 45.7783 112.847 46.4772 109.767 46.4772C106.665 46.4772 103.881 45.7726 101.415 44.3635C98.9493 42.9544 97.0004 40.9147 95.5686 38.2442C94.1368 35.5738 93.4209 32.3408 93.4209 28.5454C93.4209 24.7385 94.1368 21.4999 95.5686 18.8294C97.0004 16.159 98.9493 14.1249 101.415 12.7272C103.881 11.3181 106.665 10.6135 109.767 10.6135C112.847 10.6135 115.619 11.3181 118.085 12.7272C120.563 14.1249 122.517 16.159 123.949 18.8294C125.392 21.4999 126.114 24.7385 126.114 28.5454ZM118.631 28.5454C118.631 26.0794 118.261 23.9999 117.523 22.3067C116.795 20.6135 115.767 19.3294 114.438 18.4544C113.108 17.5794 111.551 17.1419 109.767 17.1419C107.983 17.1419 106.426 17.5794 105.097 18.4544C103.767 19.3294 102.733 20.6135 101.994 22.3067C101.267 23.9999 100.903 26.0794 100.903 28.5454C100.903 31.0113 101.267 33.0908 101.994 34.784C102.733 36.4772 103.767 37.7613 105.097 38.6363C106.426 39.5113 107.983 39.9488 109.767 39.9488C111.551 39.9488 113.108 39.5113 114.438 38.6363C115.767 37.7613 116.795 36.4772 117.523 34.784C118.261 33.0908 118.631 31.0113 118.631 28.5454ZM153.143 11.0908H160.524V33.7613C160.524 36.3067 159.916 38.534 158.7 40.4431C157.496 42.3522 155.808 43.8408 153.638 44.909C151.467 45.9658 148.939 46.4942 146.053 46.4942C143.155 46.4942 140.621 45.9658 138.45 44.909C136.28 43.8408 134.592 42.3522 133.388 40.4431C132.183 38.534 131.581 36.3067 131.581 33.7613V11.0908H138.962V33.1306C138.962 34.4601 139.251 35.6419 139.831 36.676C140.422 37.7101 141.251 38.5226 142.32 39.1135C143.388 39.7044 144.632 39.9999 146.053 39.9999C147.484 39.9999 148.729 39.7044 149.786 39.1135C150.854 38.5226 151.678 37.7101 152.257 36.676C152.848 35.6419 153.143 34.4601 153.143 33.1306V11.0908ZM166.597 45.9999V11.0908H180.369C183.006 11.0908 185.256 11.5624 187.119 12.5056C188.994 13.4374 190.42 14.7613 191.398 16.4772C192.386 18.1817 192.881 20.1874 192.881 22.4942C192.881 24.8124 192.381 26.8067 191.381 28.4772C190.381 30.1363 188.932 31.409 187.034 32.2954C185.148 33.1817 182.864 33.6249 180.182 33.6249H170.96V27.6931H178.989C180.398 27.6931 181.568 27.4999 182.5 27.1135C183.432 26.7272 184.125 26.1476 184.58 25.3749C185.045 24.6022 185.278 23.6419 185.278 22.4942C185.278 21.3351 185.045 20.3579 184.58 19.5624C184.125 18.7669 183.426 18.1647 182.483 17.7556C181.551 17.3351 180.375 17.1249 178.955 17.1249H173.977V45.9999H166.597ZM185.449 30.1135L194.125 45.9999H185.977L177.489 30.1135H185.449ZM209.206 11.0908H218.308L227.922 34.5454H228.331L237.945 11.0908H247.047V45.9999H239.888V23.2783H239.598L230.564 45.8294H225.689L216.655 23.1931H216.365V45.9999H209.206V11.0908ZM259.145 45.9999H251.236L263.287 11.0908H272.798L284.832 45.9999H276.923L268.179 19.0681H267.906L259.145 45.9999ZM258.651 32.2783H277.332V38.0397H258.651V32.2783ZM289.034 45.9999V11.0908H302.807C305.443 11.0908 307.693 11.5624 309.557 12.5056C311.432 13.4374 312.858 14.7613 313.835 16.4772C314.824 18.1817 315.318 20.1874 315.318 22.4942C315.318 24.8124 314.818 26.8067 313.818 28.4772C312.818 30.1363 311.369 31.409 309.472 32.2954C307.585 33.1817 305.301 33.6249 302.619 33.6249H293.398V27.6931H301.426C302.835 27.6931 304.006 27.4999 304.938 27.1135C305.869 26.7272 306.563 26.1476 307.017 25.3749C307.483 24.6022 307.716 23.6419 307.716 22.4942C307.716 21.3351 307.483 20.3579 307.017 19.5624C306.563 18.7669 305.864 18.1647 304.92 17.7556C303.989 17.3351 302.813 17.1249 301.392 17.1249H296.415V45.9999H289.034ZM307.886 30.1135L316.562 45.9999H308.415L299.926 30.1135H307.886ZM320.534 45.9999V11.0908H327.915V26.4829H328.375L340.938 11.0908H349.784L336.83 26.7215L349.938 45.9999H341.108L331.545 31.6476L327.915 36.0794V45.9999H320.534ZM353.628 45.9999V11.0908H377.151V17.176H361.009V25.4942H375.94V31.5794H361.009V39.9147H377.219V45.9999H353.628ZM381.689 17.176V11.0908H410.359V17.176H399.672V45.9999H392.376V17.176H381.689Z" fill="white"/>
<path d="M75.8607 1.51912C75.0829 -0.433747 72.8604 -0.511861 71.9298 1.33164C67.6238 9.75239 59.9148 15.0017 51.1084 15.0017H39.9962C25.2726 15.0017 13.327 28.4374 13.327 44.9977C13.327 46.0913 13.4381 47.138 13.5354 48.2004C22.3973 41.0607 35.1902 34.999 53.3308 34.999C54.5531 34.999 55.5532 36.1239 55.5532 37.4987C55.5532 38.8735 54.5531 39.9983 53.3308 39.9983C18.4108 39.9983 3.60385 64.0732 0.325765 73.1189C-0.590989 75.6654 0.492448 78.5713 2.75655 79.618C5.03455 80.6804 7.61812 79.4462 8.56266 76.9153C8.77101 76.3528 11.4657 69.4319 18.5497 62.7609C23.0501 69.6194 31.6065 76.1654 42.8437 74.8218C64.6513 73.0408 80 51.0437 80 24.1098C80 16.2671 78.4999 8.14323 75.8607 1.51912Z" fill="#00FF00"/>
<path d="M103.344 58.377C104.396 58.377 105.492 58.5649 106.631 58.9409C107.78 59.3062 108.661 60.0259 109.273 61.1001C109.768 61.9595 110.015 63.0015 110.015 64.2261C109.993 65.3862 109.66 66.4175 109.016 67.3198C108.554 67.9966 107.839 68.5552 106.873 68.9956C108.398 69.4897 109.515 70.3438 110.224 71.5576C110.761 72.5137 111.03 73.6631 111.03 75.0059C111.008 76.2842 110.643 77.4229 109.934 78.4219C109.322 79.292 108.457 79.9419 107.34 80.3716C106.223 80.7905 105.197 81 104.262 81H94.1592C93.9336 81 93.8208 80.8872 93.8208 80.6616C93.8208 80.3931 94.0894 80.1621 94.6265 79.9688C95.1636 79.7754 95.4321 79.335 95.4321 78.6475V60.7295C95.4321 60.0527 95.1636 59.6177 94.6265 59.4243C94.0894 59.231 93.8208 58.9946 93.8208 58.7153C93.8208 58.4897 93.9336 58.377 94.1592 58.377H103.344ZM98.3325 69.9302V79.8237H101.974C102.758 79.8237 103.548 79.7109 104.343 79.4854C105.148 79.249 105.841 78.8462 106.421 78.2769C107.313 77.4067 107.759 76.2573 107.759 74.8286C107.759 73.4536 107.292 72.3042 106.357 71.3804C105.347 70.4136 103.999 69.9302 102.312 69.9302H98.3325ZM98.3325 68.5283H102.78C104.047 68.3887 105.068 67.9482 105.841 67.207C106.647 66.4229 107.05 65.3809 107.05 64.0811C107.05 62.8135 106.625 61.7715 105.777 60.9551C104.864 60.085 103.65 59.6499 102.135 59.6499H98.3325V68.5283ZM128.738 78.6475C128.738 79.3457 129.007 79.7915 129.544 79.9849C130.081 80.1675 130.35 80.3931 130.35 80.6616C130.35 80.8872 130.237 81 130.011 81H126.096C125.913 81 125.822 80.9302 125.822 80.7905V79.7432C125.231 79.9688 124.705 80.1729 124.243 80.3555C123.792 80.5273 123.373 80.6777 122.986 80.8066C121.987 81.1396 120.961 81.3599 119.908 81.4673C119.758 81.478 119.613 81.4834 119.473 81.4834C118.582 81.4834 117.733 81.1826 116.927 80.5811C115.617 79.5928 114.961 77.4497 114.961 74.1519V68.335C114.961 67.6582 114.693 67.2231 114.156 67.0298C113.619 66.8364 113.35 66.6001 113.35 66.3208C113.35 66.0952 113.463 65.9824 113.688 65.9824C114.397 65.9502 115.096 65.8428 115.783 65.6602C116.481 65.4668 117.18 65.252 117.878 65.0156V74.1519C117.878 76.5151 118.367 78.1694 119.344 79.1147C119.967 79.7271 120.73 80.0332 121.632 80.0332C122.148 80.0332 122.712 79.9312 123.324 79.7271C123.55 79.6519 123.845 79.5444 124.21 79.4048C124.576 79.2651 124.887 79.147 125.145 79.0503C125.199 79.0288 125.285 78.9966 125.403 78.9536C125.532 78.9106 125.671 78.8569 125.822 78.7925V68.335C125.822 67.6582 125.553 67.2231 125.016 67.0298C124.479 66.8364 124.21 66.6001 124.21 66.3208C124.21 66.0952 124.323 65.9824 124.549 65.9824C125.258 65.9502 125.956 65.8428 126.644 65.6602C127.342 65.4668 128.04 65.252 128.738 65.0156V78.6475ZM134.652 68.1094C134.469 67.7012 134.206 67.3789 133.862 67.1426C133.583 66.9707 133.298 66.8257 133.008 66.7075C132.718 66.5894 132.541 66.4497 132.477 66.2886C132.455 66.2349 132.444 66.1865 132.444 66.1436C132.444 66.0469 132.514 65.9985 132.654 65.9985H137.939C138.143 65.9985 138.288 66.0952 138.374 66.2886C138.396 66.3315 138.406 66.3745 138.406 66.4175C138.406 66.5464 138.315 66.6538 138.132 66.7397C137.896 66.8687 137.729 67.062 137.633 67.3198C137.601 67.4165 137.584 67.5186 137.584 67.626C137.584 67.7549 137.617 67.8892 137.681 68.0288L141.903 78.3252L145.609 69.4468C145.706 69.2212 145.754 69.001 145.754 68.7861C145.754 68.4102 145.604 68.0449 145.303 67.6904L144.771 67.062L146.221 65.918C146.286 65.8535 146.345 65.8213 146.398 65.8213C146.474 65.8213 146.554 65.8643 146.64 65.9502L147.542 66.8687C147.725 67.062 147.816 67.2983 147.816 67.5776C147.816 67.7388 147.784 67.916 147.72 68.1094C147.548 68.625 147.295 69.2266 146.962 69.9141L138.986 87.6709C138.664 88.3799 138.374 88.9707 138.116 89.4434C137.858 89.8945 137.531 90.1201 137.133 90.1201H137.085L135.796 90.0718C135.592 90.0396 135.49 89.9375 135.49 89.7656L135.393 87.9287L136.215 87.9126C136.935 87.8911 137.445 87.5742 137.746 86.9619L140.469 81.3062C140.308 81.3062 140.2 81.2739 140.146 81.2095C140.114 81.1772 140.071 81.0967 140.018 80.9678C139.975 80.8281 139.942 80.7261 139.921 80.6616L134.652 68.1094ZM171.648 76.1338L173.565 78.5024C174.092 79.1899 174.93 79.8022 176.079 80.3394C176.369 80.4683 176.552 80.5972 176.627 80.7261C176.648 80.7905 176.659 80.8389 176.659 80.8711C176.638 80.9141 176.627 80.9409 176.627 80.9517C176.573 81.0054 176.498 81.0322 176.401 81.0322H172.47C172.094 81.0322 171.675 80.667 171.213 79.9365C170.858 79.3887 170.493 78.8945 170.117 78.4541C169.247 79.5176 168.323 80.2964 167.346 80.7905C166.357 81.2739 165.246 81.5156 164.01 81.5156C162.549 81.5156 161.384 81.0806 160.514 80.2104C159.729 79.4048 159.337 78.3789 159.337 77.1328C159.337 77.0039 159.343 76.875 159.354 76.7461C159.418 75.457 159.81 74.3076 160.53 73.2979C161.207 72.3096 162.367 71.2676 164.01 70.1719C163.355 69.291 162.845 68.4155 162.479 67.5454C162.157 66.8042 161.996 66.0146 161.996 65.1768C161.996 65.0371 162.001 64.8921 162.012 64.7417C162.066 63.3237 162.533 62.1743 163.414 61.2935C164.273 60.4448 165.396 60.0205 166.782 60.0205C168.146 60.0205 169.188 60.3643 169.908 61.0518C170.584 61.6963 170.923 62.5503 170.923 63.6138V63.8877C170.848 65.0156 170.482 66.02 169.827 66.9009C169.129 67.8247 168.065 68.7324 166.637 69.624L170.955 75.2798L172.76 71.9121C172.846 71.7402 172.899 71.563 172.921 71.3804C172.932 71.3159 172.937 71.2568 172.937 71.2031C172.937 71.0957 172.921 70.9937 172.889 70.897C172.846 70.7681 172.787 70.6606 172.711 70.5747C172.647 70.4888 172.599 70.3975 172.566 70.3008C172.556 70.2578 172.55 70.2202 172.55 70.188V70.1396C172.55 70.1289 172.561 70.0913 172.583 70.0269C172.658 69.8228 172.771 69.7207 172.921 69.7207H177.078C177.186 69.7207 177.266 69.7529 177.32 69.8174C177.331 69.8281 177.336 69.8496 177.336 69.8818V69.9141C177.336 69.9463 177.331 69.9839 177.32 70.0269C177.255 70.145 177.073 70.2793 176.772 70.4297C176.611 70.5049 176.434 70.5854 176.24 70.6714C176.047 70.7573 175.859 70.8594 175.676 70.9775C174.881 71.4932 174.205 72.1699 173.646 73.0078C173.087 73.8457 172.421 74.8877 171.648 76.1338ZM166.008 68.77C166.986 68.1899 167.7 67.5347 168.151 66.8042C168.592 66.0845 168.85 65.1714 168.925 64.0649V63.8232C168.925 63.0928 168.791 62.4644 168.522 61.938C168.221 61.3687 167.604 61.084 166.669 61.084C165.938 61.084 165.364 61.3257 164.945 61.8091C164.515 62.3247 164.279 63.0176 164.236 63.8877C164.225 64.0059 164.22 64.1187 164.22 64.2261C164.22 65.7407 164.816 67.2554 166.008 68.77ZM169.457 77.5518L164.574 71.0903C162.888 72.3149 162.001 73.8081 161.916 75.5698C161.905 75.6772 161.899 75.79 161.899 75.9082C161.899 77.0039 162.2 77.9385 162.802 78.7119C163.457 79.5713 164.295 80.001 165.315 80.001C166.186 80.001 166.959 79.7646 167.636 79.292C168.323 78.8193 168.93 78.2393 169.457 77.5518ZM195.818 80.1138C196.688 80.0601 197.521 79.8345 198.315 79.437C199.121 79.0288 199.766 78.438 200.249 77.6646C200.754 76.8589 201.006 75.8867 201.006 74.748V74.5708C200.974 73.3569 200.512 72.4277 199.621 71.7832C199.212 71.4824 198.718 71.2461 198.138 71.0742C197 70.7627 195.834 70.5425 194.642 70.4136C193.46 70.2847 192.337 69.9624 191.274 69.4468C190.318 68.9956 189.604 68.335 189.131 67.4648C188.658 66.584 188.422 65.6279 188.422 64.5967C188.422 62.5771 189.125 60.9282 190.533 59.6499C191.972 58.3179 193.788 57.6519 195.979 57.6519H196.462C198.858 57.7593 200.894 58.3555 202.569 59.4404L202.183 62.8242C202.161 63.0176 202.059 63.1143 201.876 63.1143H201.812C201.672 63.1035 201.538 62.9531 201.409 62.6631C200.947 61.6963 200.276 60.8745 199.395 60.1978C198.514 59.5103 197.563 59.145 196.543 59.1021H196.285C195.297 59.1021 194.416 59.2793 193.643 59.6338C193.138 59.8916 192.735 60.1763 192.434 60.4878C192.155 60.7886 191.908 61.1592 191.693 61.5996C191.521 61.9541 191.387 62.3677 191.29 62.8403C191.215 63.1841 191.177 63.5117 191.177 63.8232C191.177 64.2422 191.242 64.6289 191.371 64.9834C191.596 65.7031 191.983 66.2563 192.531 66.6431C192.95 66.9546 193.406 67.1694 193.9 67.2876C194.169 67.3628 194.497 67.438 194.883 67.5132C195.27 67.5776 195.673 67.6421 196.092 67.7065C196.704 67.8032 197.349 67.9053 198.025 68.0127C198.713 68.1094 199.379 68.2544 200.023 68.4478C201.098 68.7915 201.898 69.248 202.424 69.8174C202.811 70.2578 203.128 70.7412 203.375 71.2676C203.665 71.9766 203.81 72.7554 203.81 73.604C203.81 75.9028 202.875 77.8149 201.006 79.3403C200.04 80.1353 198.971 80.7207 197.8 81.0967C196.854 81.3975 195.845 81.5693 194.771 81.6123C194.534 81.623 194.303 81.6284 194.078 81.6284C192.584 81.6284 191.156 81.4189 189.792 81L188.261 76.7461C188.239 76.6924 188.229 76.6387 188.229 76.585C188.229 76.4775 188.266 76.3701 188.341 76.2627C188.427 76.123 188.54 76.0532 188.68 76.0532C188.809 76.0854 188.943 76.2412 189.083 76.5205C189.77 78.0137 190.635 79.0127 191.677 79.5176C192.536 79.9365 193.626 80.146 194.948 80.146C195.227 80.146 195.517 80.1353 195.818 80.1138ZM205.679 72.1216C205.98 70.1343 206.77 68.5444 208.048 67.3521C209.337 66.1597 211.029 65.5527 213.124 65.5312H213.188C215.304 65.5312 216.921 66.1328 218.038 67.3359C219.155 68.5605 219.714 70.1558 219.714 72.1216C219.703 72.5513 219.687 72.8574 219.666 73.04C219.644 73.2119 219.424 73.2979 219.005 73.2979H208.741C208.773 75.0381 209.213 76.4829 210.062 77.6323C210.911 78.771 211.979 79.4692 213.269 79.7271C213.645 79.813 214.026 79.856 214.413 79.856C215.433 79.856 216.491 79.5605 217.587 78.9697C218.199 78.6367 218.613 78.4702 218.828 78.4702C218.881 78.4702 218.924 78.481 218.957 78.5024C218.989 78.5347 219.005 78.583 219.005 78.6475C219.005 78.7871 218.935 78.9858 218.795 79.2437C218.667 79.5015 218.559 79.6733 218.473 79.7593C218.398 79.8452 218.328 79.9204 218.264 79.9849C217.093 80.9946 215.503 81.4995 213.494 81.4995C210.68 81.478 208.569 80.5757 207.162 78.7925C206.077 77.4175 205.534 75.7847 205.534 73.894C205.534 73.3247 205.583 72.7339 205.679 72.1216ZM208.741 72.1216H217.232C217.232 70.811 216.937 69.6079 216.346 68.5122C215.777 67.4702 214.735 66.9492 213.22 66.9492H213.043C211.528 66.9922 210.443 67.54 209.788 68.5928C209.133 69.6455 208.784 70.8218 208.741 72.1216ZM226.868 78.6475C226.868 79.3457 227.137 79.7915 227.674 79.9849C228.211 80.1675 228.479 80.3931 228.479 80.6616C228.479 80.8872 228.372 81 228.157 81H222.695C222.469 81 222.356 80.8872 222.356 80.6616C222.356 80.3931 222.625 80.1675 223.162 79.9849C223.699 79.7915 223.968 79.3457 223.968 78.6475V60.7456C223.968 60.0581 223.699 59.6177 223.162 59.4243C222.625 59.231 222.356 58.9946 222.356 58.7153C222.356 58.4897 222.469 58.377 222.695 58.377C223.404 58.3447 224.102 58.2373 224.79 58.0547C225.488 57.8721 226.181 57.6626 226.868 57.4263V78.6475ZM236.504 78.6475C236.504 79.3457 236.772 79.7915 237.31 79.9849C237.847 80.1675 238.115 80.3931 238.115 80.6616C238.115 80.8872 238.008 81 237.793 81H232.331C232.105 81 231.992 80.8872 231.992 80.6616C231.992 80.3931 232.261 80.1675 232.798 79.9849C233.335 79.7915 233.604 79.3457 233.604 78.6475V60.7456C233.604 60.0581 233.335 59.6177 232.798 59.4243C232.261 59.231 231.992 58.9946 231.992 58.7153C231.992 58.4897 232.105 58.377 232.331 58.377C233.04 58.3447 233.738 58.2373 234.425 58.0547C235.124 57.8721 235.816 57.6626 236.504 57.4263V78.6475ZM255.872 79.4854H262.752C263.751 79.4854 264.595 79.104 265.282 78.3413C265.98 77.5679 266.507 76.9663 266.861 76.5366C267.055 76.3003 267.205 76.1821 267.312 76.1821C267.538 76.1821 267.651 76.2949 267.651 76.5205C267.651 76.6602 267.64 76.7729 267.619 76.8589L266.442 81H251.634C251.441 81 251.344 80.8872 251.344 80.6616C251.344 80.3931 251.613 80.1675 252.15 79.9849C252.687 79.7915 252.956 79.3457 252.956 78.6475V60.7456C252.956 60.0474 252.687 59.6069 252.15 59.4243C251.613 59.231 251.344 58.9946 251.344 58.7153C251.344 58.4897 251.457 58.377 251.683 58.377H266.636V62.5181C266.636 62.7437 266.523 62.8564 266.297 62.8564C266.19 62.8564 265.991 62.6416 265.701 62.2119C265.164 61.4707 264.697 60.896 264.299 60.4878C263.913 60.0796 263.397 59.8755 262.752 59.8755H255.872V68.625H259.562C260.25 68.625 260.701 68.3511 260.916 67.8032C261.13 67.2446 261.377 66.9653 261.657 66.9653C261.872 66.9653 261.979 67.0781 261.979 67.3037V71.3965C261.979 71.6221 261.872 71.7349 261.657 71.7349C261.377 71.7349 261.114 71.4609 260.867 70.9131C260.62 70.3652 260.153 70.0913 259.465 70.0913H255.872V79.4854ZM274.741 68.0288L278.962 78.3252L282.668 69.4468C282.765 69.2212 282.813 69.001 282.813 68.7861C282.813 68.4102 282.663 68.0449 282.362 67.6904L281.831 67.062L283.281 65.918C283.345 65.8535 283.404 65.8213 283.458 65.8213C283.533 65.8213 283.614 65.8643 283.7 65.9502L284.602 66.8687C284.785 67.062 284.876 67.2983 284.876 67.5776C284.876 67.7388 284.844 67.916 284.779 68.1094C284.607 68.625 284.355 69.2266 284.022 69.9141L279.075 80.9678C279.021 81.0752 278.968 81.1611 278.914 81.2256C278.86 81.2793 278.801 81.3062 278.737 81.3062H277.383C277.308 81.3062 277.249 81.2739 277.206 81.2095C277.174 81.1772 277.131 81.0967 277.077 80.9678C277.034 80.8281 277.002 80.7261 276.98 80.6616L271.711 68.1094C271.529 67.7012 271.266 67.3789 270.922 67.1426C270.696 67.0029 270.471 66.8848 270.245 66.7881C270.03 66.6914 269.858 66.5947 269.729 66.498C269.654 66.4551 269.59 66.3853 269.536 66.2886C269.525 66.2456 269.52 66.208 269.52 66.1758C269.52 66.1436 269.525 66.1113 269.536 66.0791C269.568 66.0254 269.627 65.9985 269.713 65.9985H274.999C275.074 65.9985 275.16 66.0254 275.256 66.0791C275.342 66.1543 275.401 66.2241 275.434 66.2886C275.444 66.3208 275.45 66.3477 275.45 66.3691C275.45 66.4658 275.396 66.5625 275.289 66.6592C274.923 66.9922 274.725 67.2124 274.692 67.3198C274.66 67.4165 274.644 67.5186 274.644 67.626C274.644 67.7549 274.676 67.8892 274.741 68.0288ZM286.278 72.1216C286.579 70.1343 287.368 68.5444 288.646 67.3521C289.936 66.1597 291.627 65.5527 293.722 65.5312H293.787C295.903 65.5312 297.52 66.1328 298.637 67.3359C299.754 68.5605 300.312 70.1558 300.312 72.1216C300.302 72.5513 300.286 72.8574 300.264 73.04C300.243 73.2119 300.022 73.2979 299.604 73.2979H289.339C289.372 75.0381 289.812 76.4829 290.661 77.6323C291.509 78.771 292.578 79.4692 293.867 79.7271C294.243 79.813 294.625 79.856 295.011 79.856C296.032 79.856 297.09 79.5605 298.186 78.9697C298.798 78.6367 299.211 78.4702 299.426 78.4702C299.48 78.4702 299.523 78.481 299.555 78.5024C299.587 78.5347 299.604 78.583 299.604 78.6475C299.604 78.7871 299.534 78.9858 299.394 79.2437C299.265 79.5015 299.158 79.6733 299.072 79.7593C298.997 79.8452 298.927 79.9204 298.862 79.9849C297.691 80.9946 296.102 81.4995 294.093 81.4995C291.278 81.478 289.167 80.5757 287.76 78.7925C286.675 77.4175 286.133 75.7847 286.133 73.894C286.133 73.3247 286.181 72.7339 286.278 72.1216ZM289.339 72.1216H297.831C297.831 70.811 297.536 69.6079 296.945 68.5122C296.375 67.4702 295.333 66.9492 293.819 66.9492H293.642C292.127 66.9922 291.042 67.54 290.387 68.5928C289.731 69.6455 289.382 70.8218 289.339 72.1216ZM307.805 71.4126V78.6475C307.805 79.3457 308.068 79.7915 308.595 79.9849C309.132 80.1675 309.4 80.3931 309.4 80.6616C309.4 80.8872 309.293 81 309.078 81H303.616C303.39 81 303.277 80.8872 303.277 80.6616C303.277 80.3931 303.546 80.1675 304.083 79.9849C304.62 79.7915 304.889 79.3457 304.889 78.6475V68.335C304.889 67.6582 304.62 67.2231 304.083 67.0298C303.546 66.8364 303.277 66.6001 303.277 66.3208C303.277 66.0952 303.39 65.9824 303.616 65.9824C304.325 65.9502 305.023 65.8428 305.71 65.6602C306.409 65.4668 307.107 65.252 307.805 65.0156V67.1426L310.045 66.2886C310.872 65.9771 311.517 65.7461 311.979 65.5957C312.118 65.5527 312.285 65.5312 312.478 65.5312C312.875 65.5312 313.38 65.6387 313.993 65.8535L313.638 69.8979H312.897C312.478 68.3296 311.672 67.5454 310.48 67.5454C310.362 67.5454 310.244 67.5508 310.125 67.5615C309.309 67.6582 308.724 68.0771 308.369 68.8184C308.025 69.5488 307.837 70.4136 307.805 71.4126ZM317.409 68.1094C317.226 67.7012 316.963 67.3789 316.619 67.1426C316.34 66.9707 316.055 66.8257 315.765 66.7075C315.475 66.5894 315.298 66.4497 315.233 66.2886C315.212 66.2349 315.201 66.1865 315.201 66.1436C315.201 66.0469 315.271 65.9985 315.411 65.9985H320.696C320.9 65.9985 321.045 66.0952 321.131 66.2886C321.152 66.3315 321.163 66.3745 321.163 66.4175C321.163 66.5464 321.072 66.6538 320.889 66.7397C320.653 66.8687 320.486 67.062 320.39 67.3198C320.357 67.4165 320.341 67.5186 320.341 67.626C320.341 67.7549 320.374 67.8892 320.438 68.0288L324.66 78.3252L328.366 69.4468C328.462 69.2212 328.511 69.001 328.511 68.7861C328.511 68.4102 328.36 68.0449 328.06 67.6904L327.528 67.062L328.978 65.918C329.042 65.8535 329.102 65.8213 329.155 65.8213C329.23 65.8213 329.311 65.8643 329.397 65.9502L330.299 66.8687C330.482 67.062 330.573 67.2983 330.573 67.5776C330.573 67.7388 330.541 67.916 330.477 68.1094C330.305 68.625 330.052 69.2266 329.719 69.9141L321.743 87.6709C321.421 88.3799 321.131 88.9707 320.873 89.4434C320.615 89.8945 320.288 90.1201 319.89 90.1201H319.842L318.553 90.0718C318.349 90.0396 318.247 89.9375 318.247 89.7656L318.15 87.9287L318.972 87.9126C319.691 87.8911 320.202 87.5742 320.502 86.9619L323.226 81.3062C323.064 81.3062 322.957 81.2739 322.903 81.2095C322.871 81.1772 322.828 81.0967 322.774 80.9678C322.731 80.8281 322.699 80.7261 322.678 80.6616L317.409 68.1094ZM334.747 67.3843C334.338 67.395 333.726 67.4219 332.91 67.4648H332.829C332.625 67.4648 332.518 67.3574 332.507 67.1426V67.1104C332.507 66.9385 332.609 66.8042 332.813 66.7075C333.028 66.6108 333.474 66.3799 334.15 66.0146C334.312 65.9287 334.467 65.8535 334.618 65.7891C334.65 65.7783 334.693 65.7729 334.747 65.7729V63.0176C334.747 62.4805 334.854 62.1099 335.069 61.9058C335.294 61.6909 335.805 61.3955 336.6 61.0195C336.89 60.8799 337.121 60.8101 337.292 60.8101C337.54 60.8101 337.663 60.9497 337.663 61.229V65.7246L341.498 65.644H341.514C341.675 65.644 341.756 65.7837 341.756 66.063C341.756 66.2134 341.734 66.396 341.691 66.6108C341.584 67.1157 341.342 67.3682 340.966 67.3682L337.663 67.3521V77.4551C337.663 78.4326 338.001 79.1631 338.678 79.6465C339.366 80.1299 339.951 80.4038 340.435 80.4683V80.9839C338.834 80.9839 337.486 80.8335 336.39 80.5327C335.294 80.2319 334.747 79.0449 334.747 76.9717V67.3843ZM348.233 78.6475C348.233 79.3457 348.502 79.7915 349.039 79.9849C349.576 80.1675 349.845 80.3931 349.845 80.6616C349.845 80.8872 349.737 81 349.522 81H344.06C343.834 81 343.722 80.8872 343.722 80.6616C343.722 80.3931 343.99 80.1675 344.527 79.9849C345.064 79.7915 345.333 79.3457 345.333 78.6475V60.7456C345.333 60.0581 345.064 59.6177 344.527 59.4243C343.99 59.231 343.722 58.9946 343.722 58.7153C343.722 58.4897 343.834 58.377 344.06 58.377C344.769 58.3447 345.467 58.2373 346.155 58.0547C346.853 57.8721 347.546 57.6626 348.233 57.4263V67.2554C348.824 67.0298 349.345 66.8311 349.796 66.6592C350.248 66.4873 350.677 66.3315 351.085 66.1919C352.074 65.8481 353.1 65.6226 354.163 65.5151C354.292 65.5044 354.426 65.499 354.566 65.499C355.468 65.499 356.328 65.8052 357.144 66.4175C358.444 67.4165 359.094 69.5596 359.094 72.8467V78.6475C359.094 79.3457 359.362 79.7915 359.899 79.9849C360.437 80.1675 360.705 80.3931 360.705 80.6616C360.705 80.8872 360.598 81 360.383 81H356.467C356.285 81 356.193 80.9302 356.193 80.7905V72.8467C356.193 70.4941 355.705 68.8398 354.727 67.8838C354.104 67.2715 353.341 66.9653 352.439 66.9653C351.923 66.9653 351.359 67.0674 350.747 67.2715C350.511 67.3574 350.21 67.4702 349.845 67.6099C349.49 67.7388 349.184 67.8516 348.926 67.9482C348.668 68.0449 348.438 68.1309 348.233 68.2061V78.6475ZM366.731 58.4414C367.902 58.4414 368.488 59.0322 368.488 60.2139C368.488 61.4062 367.902 62.0024 366.731 62.0024C365.561 62.0024 364.975 61.4062 364.975 60.2139C364.975 59.0322 365.561 58.4414 366.731 58.4414ZM368.182 78.6475C368.182 79.3457 368.45 79.7915 368.987 79.9849C369.524 80.1675 369.793 80.3931 369.793 80.6616C369.793 80.8872 369.686 81 369.471 81H364.008C363.783 81 363.67 80.8872 363.67 80.6616C363.67 80.3931 363.938 80.1675 364.476 79.9849C365.013 79.7915 365.281 79.3457 365.281 78.6475V68.335C365.281 67.6582 365.013 67.2231 364.476 67.0298C363.938 66.8364 363.67 66.6001 363.67 66.3208C363.67 66.0952 363.783 65.9824 364.008 65.9824C364.717 65.9502 365.416 65.8428 366.103 65.6602C366.801 65.4668 367.494 65.252 368.182 65.0156V78.6475ZM377.27 67.2554C377.86 67.0298 378.381 66.8311 378.833 66.6592C379.284 66.4873 379.713 66.3315 380.122 66.1919C381.11 65.8481 382.136 65.6226 383.199 65.5151C383.328 65.5044 383.462 65.499 383.602 65.499C384.504 65.499 385.364 65.8052 386.18 66.4175C387.48 67.4165 388.13 69.5596 388.13 72.8467V78.6475C388.13 79.3457 388.398 79.7915 388.936 79.9849C389.473 80.1675 389.741 80.3931 389.741 80.6616C389.741 80.8872 389.634 81 389.419 81H385.503C385.321 81 385.229 80.9302 385.229 80.7905V72.8467C385.229 70.4941 384.741 68.8398 383.763 67.8838C383.14 67.2715 382.377 66.9653 381.475 66.9653C380.959 66.9653 380.396 67.0674 379.783 67.2715C379.547 67.3574 379.246 67.4702 378.881 67.6099C378.526 67.7388 378.22 67.8516 377.962 67.9482C377.705 68.0449 377.474 68.1309 377.27 68.2061V78.6475C377.27 79.3457 377.538 79.7915 378.075 79.9849C378.612 80.1675 378.881 80.3931 378.881 80.6616C378.881 80.8872 378.773 81 378.559 81H373.096C372.871 81 372.758 80.8872 372.758 80.6616C372.758 80.3931 373.026 80.1675 373.563 79.9849C374.101 79.7915 374.369 79.3457 374.369 78.6475V68.335C374.369 67.6582 374.101 67.2231 373.563 67.0298C373.026 66.8364 372.758 66.6001 372.758 66.3208C372.758 66.0952 372.871 65.9824 373.096 65.9824C373.805 65.9502 374.503 65.8428 375.191 65.6602C375.889 65.4668 376.582 65.252 377.27 65.0156V67.2554ZM403.486 77.7935V68.6089C403.045 68.2007 402.465 67.8247 401.746 67.481C401.026 67.1265 400.387 66.9385 399.828 66.917H399.764C399.549 66.917 399.334 66.96 399.119 67.0459C398.732 67.1855 398.346 67.3306 397.959 67.481C397.583 67.6206 397.202 67.7603 396.815 67.8999C396.546 68.0073 396.332 68.147 396.17 68.3188C395.504 69.0278 395.059 69.8872 394.833 70.897C394.65 71.6597 394.559 72.417 394.559 73.1689C394.559 73.4053 394.57 73.647 394.591 73.894C394.709 75.4409 395.128 76.6978 395.848 77.6646C396.568 78.6636 397.47 79.3135 398.555 79.6143C398.963 79.7324 399.377 79.7915 399.796 79.7915C399.925 79.7915 400.059 79.7861 400.199 79.7754C400.435 79.7539 400.714 79.6841 401.037 79.5659C401.284 79.48 401.665 79.3403 402.181 79.147C402.707 78.9536 403.137 78.7925 403.47 78.6636V77.7935H403.486ZM403.47 79.5981L399.055 81.2256C398.711 81.3438 398.426 81.4028 398.201 81.4028H397.54C396.015 81.3276 394.699 80.7046 393.592 79.5337C392.486 78.3628 391.857 76.9233 391.707 75.2153C391.664 74.7642 391.643 74.3291 391.643 73.9102C391.643 73.3516 391.68 72.8091 391.755 72.2827C391.884 71.3696 392.239 70.4565 392.819 69.5435C393.098 69.0708 393.576 68.5767 394.253 68.061C394.489 67.8999 394.752 67.7549 395.042 67.626C395.902 67.3037 396.761 66.9814 397.621 66.6592C398.491 66.3369 399.361 66.0146 400.231 65.6924C400.414 65.6279 400.585 65.5957 400.747 65.5957H400.827C401.515 65.6279 402.347 65.7998 403.325 66.1113C403.411 66.1436 403.464 66.165 403.486 66.1758C403.722 66.2725 404.012 66.3799 404.356 66.498C404.496 66.541 404.625 66.5625 404.743 66.5625C404.915 66.5625 405.065 66.5142 405.194 66.4175C405.419 66.2241 405.581 66.063 405.677 65.9341C405.731 65.8589 405.801 65.8213 405.887 65.8213C405.94 65.8213 405.994 65.832 406.048 65.8535C406.284 65.9395 406.402 66.0469 406.402 66.1758V83.9004C406.402 85.6729 406.15 86.7793 405.645 87.2197C405.14 87.6602 404.42 88.0522 403.486 88.396L399.055 90.0557C398.711 90.1738 398.426 90.2329 398.201 90.2329C397.921 90.2329 397.701 90.2275 397.54 90.2168C396.025 90.1631 394.709 89.54 393.592 88.3477C393.012 87.7139 392.55 86.9565 392.207 86.0757C393.141 85.7104 394.097 85.3506 395.075 84.9961C395.268 85.5439 395.526 86.0381 395.848 86.4785C396.579 87.4668 397.481 88.1167 398.555 88.4282C398.963 88.5356 399.366 88.5894 399.764 88.5894C399.914 88.5894 400.059 88.584 400.199 88.5732C400.435 88.5518 400.714 88.4873 401.037 88.3799C401.166 88.3262 401.332 88.2617 401.536 88.1865C401.74 88.1113 401.96 88.0308 402.197 87.9448C402.712 87.687 403.056 87.166 403.228 86.3818C403.4 85.5977 403.486 85.0767 403.486 84.8188L403.47 79.5981Z" fill="white"/>
</svg>
